<svg width="98" height="27" viewBox="0 0 98 27" fill="none" xmlns="http://www.w3.org/2000/svg">
<path d="M31.9608 11.6318C32.6717 11.8171 34.2176 12.221 34.4871 11.1618C34.7615 10.0786 33.2595 9.75169 32.5246 9.59115C32.4411 9.57295 32.3675 9.55723 32.308 9.5415L31.788 11.5879C31.8376 11.5995 31.8947 11.6144 31.9608 11.6318ZM31.1565 14.9244C32.0071 15.1454 33.8679 15.6286 34.1639 14.461C34.4672 13.2686 32.6627 12.8706 31.7831 12.6769C31.6839 12.6554 31.5971 12.6355 31.5268 12.619L30.9531 14.8731L31.1565 14.9244Z" fill="#F7931A"/>
<path fill-rule="evenodd" clip-rule="evenodd" d="M41.6469 12.292C41.6469 17.4449 37.4087 21.6221 32.1809 21.6221C26.9531 21.6221 22.7148 17.4449 22.7148 12.292C22.7148 7.1383 26.9531 2.96106 32.1801 2.96106C37.4087 2.96106 41.6469 7.1383 41.6469 12.292ZM34.455 8.82475C35.7719 9.27078 36.7349 9.93858 36.5465 11.1798C36.4084 12.0901 35.8951 12.5295 35.2131 12.6834C36.1488 13.1617 36.4679 14.0695 36.172 15.1676C35.609 16.7473 34.2707 16.8805 32.4925 16.5495L32.0602 18.2484L31.0178 17.9927L31.4435 16.317C31.1656 16.249 30.8884 16.1784 30.6119 16.1051L30.1845 17.7891L29.1429 17.5334L29.5744 15.8321L27.4739 15.3116L27.9914 14.139C27.9914 14.139 28.7602 14.3392 28.7503 14.3243C29.0454 14.3963 29.1768 14.2077 29.2281 14.0819L30.3986 9.47269C30.4118 9.25506 30.335 8.98115 29.9125 8.87689C29.9291 8.86613 29.1553 8.69235 29.1553 8.69235L29.4331 7.59839L31.5361 8.10979L31.9643 6.42747L33.0059 6.68317L32.5876 8.33239C32.8678 8.39445 33.1497 8.45817 33.4234 8.5252L33.8392 6.88674L34.8824 7.14244L34.455 8.82475Z" fill="#F7931A"/>
<path d="M26.8623 14.7829C26.8623 19.954 22.6092 24.1461 17.3624 24.1461C12.1164 24.1461 7.86328 19.954 7.86328 14.7829C7.86328 9.61267 12.1164 5.42053 17.3624 5.42053C22.6092 5.42053 26.8623 9.61267 26.8623 14.7829Z" fill="#6481E7"/>
<path fill-rule="evenodd" clip-rule="evenodd" d="M17.4766 8.19531V17.6471L21.7371 15.1646L17.4766 8.19531Z" fill="#C1CCF5"/>
<path fill-rule="evenodd" clip-rule="evenodd" d="M13.2109 15.1646L17.4724 17.6471V8.19531L13.2109 15.1646Z" fill="white"/>
<path fill-rule="evenodd" clip-rule="evenodd" d="M17.4724 13.2552L13.2109 15.1643L17.4724 17.6468L21.7329 15.1643L17.4724 13.2552Z" fill="#8299EC"/>
<path fill-rule="evenodd" clip-rule="evenodd" d="M17.4724 18.442V21.8795L21.7362 15.9604L17.4724 18.442ZM17.4724 13.2552L13.2109 15.1643L17.4724 17.6468V13.2552Z" fill="#C1CCF5"/>
<path fill-rule="evenodd" clip-rule="evenodd" d="M13.2109 15.9612L17.4724 21.8786V18.442L13.2109 15.9612Z" fill="white"/>
<path d="M55.8435 11.4845H54.6779C54.5596 10.8691 54.208 10.3235 53.6967 9.96189C53.4534 9.78509 53.1816 9.65131 52.8932 9.56634C52.5945 9.47775 52.2846 9.43315 51.9731 9.43394C51.4141 9.42755 50.8648 9.58115 50.39 9.87665C49.9205 10.1712 49.546 10.6049 49.2675 11.1791C48.9922 11.7526 48.8541 12.456 48.8541 13.2893C48.8541 14.1234 48.9922 14.8276 49.2675 15.4011C49.546 15.9745 49.9205 16.409 50.39 16.7036C50.8649 16.9988 51.4141 17.1521 51.9731 17.1455C52.2846 17.1463 52.5945 17.1017 52.8932 17.0131C53.1875 16.9262 53.4553 16.7962 53.6967 16.6241C54.2061 16.258 54.5572 15.7116 54.6787 15.0957H55.8435C55.7652 15.5615 55.6027 16.009 55.364 16.4164C55.1326 16.8053 54.8441 17.1363 54.4994 17.4094C54.1515 17.6804 53.759 17.8885 53.3396 18.0243C52.8984 18.1678 52.437 18.2393 51.9731 18.2361C51.1522 18.2361 50.4231 18.0358 49.7841 17.6345C49.1451 17.2332 48.6433 16.663 48.2763 15.9232C47.9101 15.1834 47.7266 14.3055 47.7266 13.2901C47.7266 12.2739 47.9101 11.3968 48.2763 10.657C48.6425 9.9172 49.1451 9.34705 49.7841 8.94571C50.4231 8.54437 51.1522 8.34412 51.9731 8.34412C52.4369 8.34062 52.8983 8.41187 53.3396 8.55513C53.7602 8.69132 54.1532 8.90149 54.5002 9.17576C54.8441 9.44552 55.1326 9.77487 55.364 10.163C55.5955 10.5486 55.755 10.9896 55.8435 11.4845ZM57.5753 18.1045V10.8829H58.6459V11.9735H58.7211C58.8534 11.6161 59.0906 11.3264 59.4353 11.1038C59.7824 10.8803 60.1875 10.7641 60.6001 10.7695C60.6811 10.7695 60.7828 10.7712 60.9051 10.7745C61.0275 10.7778 61.12 10.7828 61.182 10.7886V11.9173C61.0967 11.8998 61.0106 11.8858 60.9241 11.8751C60.7859 11.8525 60.6459 11.8415 60.5058 11.842C60.1553 11.842 59.842 11.9156 59.5668 12.0629C59.294 12.2069 59.0782 12.408 58.9187 12.6645C58.7596 12.9263 58.678 13.2279 58.6831 13.5342V18.1045H57.5753ZM63.4297 20.813C63.261 20.8144 63.0926 20.7986 62.9271 20.7658C62.8222 20.75 62.7195 20.7217 62.6213 20.6814L62.904 19.7033C63.1726 19.7719 63.4107 19.7976 63.6174 19.7777C63.824 19.7595 64.0076 19.6669 64.1671 19.5014C64.33 19.3383 64.4788 19.0735 64.6135 18.707L64.8202 18.1418L62.1525 10.8829H63.3545L65.3467 16.6374H65.4211L67.4134 10.8829H68.6153L65.5526 19.1579C65.4154 19.5303 65.2442 19.8398 65.0401 20.0839C64.8375 20.3322 64.6011 20.5142 64.3316 20.6342C64.047 20.7571 63.7396 20.8181 63.4297 20.813ZM70.0785 20.813V10.8829H71.149V12.0298H71.2813C71.3623 11.9049 71.4747 11.7443 71.6186 11.5499C71.7657 11.3529 71.9757 11.1775 72.2485 11.0236C72.5238 10.8663 72.8966 10.7886 73.3661 10.7886C73.9737 10.7886 74.5086 10.9408 74.9723 11.2445C75.4353 11.549 75.7973 11.9793 76.0577 12.5379C76.3173 13.0956 76.4471 13.7543 76.4471 14.5123C76.4471 15.2769 76.3173 15.9406 76.0577 16.5017C75.7973 17.0594 75.4377 17.4922 74.9773 17.7992C74.5168 18.1029 73.9853 18.2543 73.3851 18.2543C72.9214 18.2543 72.5502 18.1782 72.2716 18.0243C71.9931 17.8679 71.7781 17.6908 71.6285 17.493C71.5058 17.332 71.3899 17.1658 71.2813 16.9948H71.1862V20.813H70.0785ZM71.1681 14.4933C71.1681 15.0395 71.2474 15.5194 71.4078 15.9373C71.5673 16.351 71.8005 16.6754 72.1071 16.9104C72.4138 17.1421 72.79 17.258 73.2347 17.258C73.6976 17.258 74.0845 17.1355 74.3945 16.8914C74.7078 16.6432 74.9426 16.3122 75.0988 15.8951C75.2592 15.4747 75.3385 15.008 75.3385 14.4933C75.3385 13.986 75.2608 13.5284 75.1038 13.1205C74.9508 12.71 74.7169 12.3856 74.4044 12.1473C74.0944 11.9057 73.7042 11.7857 73.2347 11.7857C72.7833 11.7857 72.4047 11.8999 72.098 12.1283C71.7914 12.3542 71.5591 12.6711 71.4028 13.0783C71.2458 13.4829 71.1681 13.9546 71.1681 14.4933ZM81.2756 10.8829V11.8229H77.5366V10.8829H81.2756ZM78.6262 9.15259H79.7347V16.0358C79.7347 16.3494 79.7802 16.5844 79.8711 16.7408C79.9653 16.8947 80.0844 16.9973 80.2282 17.0511C80.3754 17.1008 80.5308 17.1264 80.6936 17.1264C80.8151 17.1264 80.916 17.1206 80.9937 17.1074L81.1813 17.0701L81.407 18.0665C81.3326 18.0954 81.2268 18.1236 81.0929 18.1517C80.9581 18.1831 80.787 18.1989 80.5804 18.1989C80.2625 18.1977 79.9485 18.1286 79.6595 17.9961C79.3618 17.8609 79.1057 17.6483 78.918 17.3805C78.7237 17.1049 78.6262 16.7565 78.6262 16.337V9.15259ZM85.7966 18.2551C85.1452 18.2551 84.5739 18.0996 84.0821 17.7892C83.5935 17.4789 83.2116 17.0445 82.9363 16.4876C82.6635 15.929 82.5271 15.2769 82.5271 14.5314C82.5271 13.7783 82.6635 13.1221 82.9363 12.5619C83.2116 12 83.5935 11.5648 84.0821 11.2544C84.5739 10.9441 85.1452 10.7886 85.7966 10.7886C86.448 10.7886 87.0175 10.9441 87.5061 11.2544C87.998 11.5648 88.3799 12 88.6518 12.5619C88.9279 13.1221 89.0652 13.7783 89.0652 14.5314C89.0652 15.2769 88.9279 15.9298 88.6518 16.4876C88.4008 17.0214 88.0035 17.4728 87.5061 17.7892C87.0175 18.0996 86.448 18.2551 85.7966 18.2551ZM85.7966 17.258C86.2909 17.258 86.6984 17.1314 87.0175 16.8773C87.3421 16.6158 87.5876 16.2692 87.7268 15.8761C87.8806 15.4623 87.9566 15.0138 87.9566 14.5314C87.9566 14.0489 87.8806 13.5988 87.7268 13.1825C87.588 12.7862 87.3426 12.436 87.0175 12.1705C86.6984 11.914 86.2909 11.7857 85.7966 11.7857C85.3014 11.7857 84.8947 11.914 84.5756 12.1705C84.2502 12.4353 84.0047 12.7854 83.8663 13.1817C83.7099 13.614 83.6318 14.0708 83.6357 14.5305C83.6357 15.0138 83.7126 15.4623 83.8663 15.8761C84.0193 16.2898 84.2557 16.6233 84.5756 16.8773C84.8947 17.1314 85.3014 17.258 85.7966 17.258Z" fill="white"/>
</svg>
