<svg width="90" height="26" viewBox="0 0 90 26" fill="none" xmlns="http://www.w3.org/2000/svg">
<path d="M6.42951 17.0702C5.71919 17.7111 4.79822 18.0689 3.84149 18.0756C3.43872 18.1042 3.03442 18.0484 2.65448 17.9117C2.27455 17.775 1.92738 17.5604 1.63522 17.2816C1.34306 17.0029 1.11237 16.6662 0.95792 16.2932C0.803473 15.9201 0.728685 15.5188 0.738349 15.1152C0.708567 14.5861 0.846779 14.0611 1.13324 13.6152C1.4197 13.1694 1.83974 12.8255 2.33336 12.6327C3.0923 12.3101 3.89998 12.117 4.72278 12.0617L6.324 11.9314V11.59C6.324 10.566 5.64131 10.1067 4.49936 10.1067C3.66026 10.1431 2.8416 10.377 2.10994 10.7894L1.30933 9.3123C2.39551 8.72517 3.60623 8.406 4.8407 8.38136C7.32321 8.38136 8.48379 9.51711 8.48379 11.6831V15.4565C8.42319 16.2603 8.50086 17.0684 8.71342 17.8459H6.77085L6.42951 17.0702ZM4.94621 13.6567C4.46735 13.6331 3.99224 13.7519 3.58083 13.998C3.40587 14.1055 3.26146 14.2561 3.16148 14.4354C3.06149 14.6147 3.00928 14.8168 3.00985 15.0221C3.00898 15.1961 3.04469 15.3683 3.11469 15.5276C3.18468 15.6869 3.28738 15.8297 3.41613 15.9468C3.54488 16.0638 3.69679 16.1525 3.86202 16.207C4.02725 16.2615 4.2021 16.2807 4.37523 16.2633C5.04185 16.242 5.68298 16.0021 6.19988 15.5806V13.6381L4.94621 13.6567ZM9.84917 13.4084C9.84917 10.4481 12.0152 8.51169 14.8576 8.51169C15.2745 8.49335 15.692 8.53092 16.0989 8.6234V4.18591H18.3766V17.5108C17.2996 17.9764 16.1364 18.2091 14.9631 18.1935C12.1269 18.0756 9.84917 16.4868 9.84917 13.4084ZM16.1113 16.0275V10.5598C15.7413 10.4609 15.3577 10.4231 14.9756 10.4481C14.5891 10.4377 14.2047 10.5081 13.847 10.6548C13.4892 10.8014 13.166 11.021 12.8979 11.2996C12.6298 11.5782 12.4228 11.9096 12.29 12.2727C12.1573 12.6358 12.1017 13.0226 12.1269 13.4084C12.0938 13.7909 12.1447 14.1759 12.2762 14.5366C12.4076 14.8972 12.6164 15.2248 12.8878 15.4962C13.1592 15.7676 13.4868 15.9764 13.8474 16.1078C14.2081 16.2393 14.5931 16.2902 14.9756 16.2571C15.3169 16.1392 15.77 16.1392 16.1113 16.0275ZM19.1834 8.74132H21.5728L23.8505 15.0035L26.1282 8.74132H28.406L24.6512 17.9639H22.9444L19.1834 8.74132Z" fill="#00364D"/>
<path d="M28.7549 13.4084C28.7406 12.7631 28.8568 12.1214 29.0967 11.5221C29.3365 10.9227 29.695 10.378 30.1506 9.92067C30.6062 9.46332 31.1495 9.10276 31.748 8.86064C32.3464 8.61852 32.9876 8.49983 33.633 8.51169C34.491 8.52957 35.336 8.72393 36.1155 9.08267V11.019C35.4474 10.5567 34.6501 10.3177 33.8378 10.3363C32.1311 10.3363 31.1071 11.5776 31.1071 13.2967C31.1071 15.2331 32.1311 16.2571 33.7261 16.2571C34.4856 16.2594 35.2324 16.0625 35.8921 15.6862L36.5748 17.2812C35.614 17.8691 34.5112 18.1845 33.3848 18.1935C32.7612 18.2018 32.1426 18.0825 31.5669 17.8429C30.9911 17.6034 30.4705 17.2486 30.0368 16.8005C29.6032 16.3523 29.2658 15.8202 29.0454 15.2369C28.8249 14.6536 28.7261 14.0314 28.7549 13.4084ZM42.6445 17.0702C41.9291 17.725 40.9954 18.0901 40.0255 18.0942C39.6227 18.1228 39.2184 18.067 38.8385 17.9303C38.4586 17.7936 38.1114 17.579 37.8192 17.3003C37.5271 17.0215 37.2964 16.6848 37.1419 16.3118C36.9875 15.9387 36.9127 15.5375 36.9224 15.1338C36.8926 14.6047 37.0308 14.0797 37.3172 13.6339C37.6037 13.188 38.0237 12.8441 38.5174 12.6513C39.2763 12.3287 40.084 12.1357 40.9068 12.0803L42.5018 11.9686V11.6272C42.5018 10.6032 41.8191 10.1439 40.6772 10.1439C39.8381 10.1803 39.0194 10.4142 38.2877 10.8266L37.5244 9.3123C38.618 8.72134 39.8377 8.40205 41.0806 8.38136C43.5631 8.38136 44.7237 9.51711 44.7237 11.6831V15.4565C44.663 16.2603 44.7407 17.0684 44.9533 17.8459H42.9859L42.6445 17.0702ZM41.1612 13.6567C40.6824 13.6331 40.2073 13.7519 39.7959 13.998C39.6224 14.1031 39.4785 14.2504 39.3775 14.4263C39.2766 14.6021 39.2219 14.8007 39.2187 15.0035C39.2178 15.1775 39.2535 15.3497 39.3235 15.509C39.3935 15.6683 39.4962 15.8111 39.625 15.9281C39.7537 16.0452 39.9056 16.1339 40.0709 16.1884C40.2361 16.2429 40.4109 16.2621 40.5841 16.2447C41.2507 16.2234 41.8918 15.9835 42.4087 15.562V13.6381L41.1612 13.6567ZM46.5173 15.4565C47.2527 15.9514 48.1137 16.2269 48.9998 16.2509C49.9121 16.2509 50.5948 16.0213 50.5948 15.2269C50.5948 13.6319 46.2504 14.2029 46.2504 11.2425C46.2504 9.64744 47.6158 8.51169 49.7818 8.51169C50.7089 8.53258 51.6283 8.68512 52.5125 8.96475V10.9011C51.6864 10.5377 50.7959 10.3435 49.8935 10.3301C49.0991 10.3301 48.6522 10.5598 48.6522 11.1245C48.6522 12.6078 52.9966 12.0369 52.9966 15.2269C52.9966 17.275 51.2899 18.0756 49.2356 18.0756C48.0372 18.078 46.8595 17.7633 45.8222 17.1632L46.5173 15.4565ZM54.2627 4.18591H56.5404V9.77157C57.4003 9.01164 58.4968 8.57302 59.6436 8.53031C61.1269 8.53031 62.6039 9.213 62.6039 11.8321V17.8646H60.32V12.4961C60.32 11.3604 60.0904 10.4481 58.9547 10.4481C58.0909 10.5189 57.2778 10.8849 56.6521 11.4845V17.8521H54.3744V4.19833L54.2627 4.18591Z" fill="#009A61"/>
<path d="M77.3813 25.1382C84.2366 25.1382 89.7939 19.5809 89.7939 12.7257C89.7939 5.8704 84.2366 0.31311 77.3813 0.31311C70.526 0.31311 64.9688 5.8704 64.9688 12.7257C64.9688 19.5809 70.526 25.1382 77.3813 25.1382Z" fill="#009A61"/>
<path d="M70.7695 19.329L77.1496 5.32141L77.6026 10.2182L73.3886 19.2173L70.7695 19.329Z" fill="white"/>
<path d="M71.2278 13.4082H83.299L81.9336 15.1149H72.3635L71.2278 13.4082ZM69.1797 10.3361H85.1174L83.752 12.0428H70.3154L69.1797 10.3361Z" fill="#00364D"/>
<path d="M83.5222 19.329L77.1484 5.32141L76.6953 10.2182L80.9032 19.2173L83.5222 19.329Z" fill="white"/>
</svg>
