<svg width="119" height="28" viewBox="0 0 119 28" fill="none" xmlns="http://www.w3.org/2000/svg">
<path d="M13.0781 10.4564C13.0781 10.2809 13.1478 10.1125 13.2719 9.98833C13.396 9.86418 13.5643 9.79443 13.7398 9.79443H14.1814C14.3569 9.79443 14.5252 9.86418 14.6492 9.98833C14.7733 10.1125 14.843 10.2809 14.843 10.4564V17.9594C14.843 18.135 14.7733 18.3034 14.6492 18.4275C14.5252 18.5517 14.3569 18.6214 14.1814 18.6214H13.7398C13.5643 18.6214 13.396 18.5517 13.2719 18.4275C13.1478 18.3034 13.0781 18.135 13.0781 17.9594V10.4564Z" fill="white" fill-opacity="0.08"/>
<path d="M17.4883 10.4564C17.4883 10.2809 17.558 10.1125 17.6821 9.98833C17.8061 9.86418 17.9744 9.79443 18.1499 9.79443H18.5915C18.767 9.79443 18.9353 9.86418 19.0594 9.98833C19.1835 10.1125 19.2532 10.2809 19.2532 10.4564V17.9594C19.2532 18.135 19.1835 18.3034 19.0594 18.4275C18.9353 18.5517 18.767 18.6214 18.5915 18.6214H18.1499C17.9744 18.6214 17.8061 18.5517 17.6821 18.4275C17.558 18.3034 17.4883 18.135 17.4883 17.9594V10.4564Z" fill="white" fill-opacity="0.08"/>
<path d="M21.9023 10.4564C21.9023 10.2809 21.9721 10.1125 22.0961 9.98833C22.2202 9.86418 22.3885 9.79443 22.564 9.79443H23.0056C23.1811 9.79443 23.3494 9.86418 23.4735 9.98833C23.5975 10.1125 23.6672 10.2809 23.6672 10.4564V17.9594C23.6672 18.135 23.5975 18.3034 23.4735 18.4275C23.3494 18.5517 23.1811 18.6214 23.0056 18.6214H22.564C22.3885 18.6214 22.2202 18.5517 22.0961 18.4275C21.9721 18.3034 21.9023 18.135 21.9023 17.9594V10.4564Z" fill="white" fill-opacity="0.08"/>
<path d="M24.901 10.6771C25.3955 10.6771 25.642 10.6771 25.8306 10.5803C25.9968 10.4959 26.1316 10.3601 26.2168 10.193C26.3127 10.0035 26.3127 9.75523 26.3127 9.25873V8.26987C26.3127 7.86439 26.3127 7.66082 26.2408 7.49284C26.1778 7.34542 26.0761 7.21786 25.9464 7.12377C25.7991 7.01702 25.6015 6.97317 25.2078 6.88545L18.6792 5.42739C18.6038 5.40819 18.5273 5.39382 18.4501 5.38436C18.3989 5.37986 18.3474 5.37986 18.2962 5.38436C18.2384 5.38932 18.1805 5.40256 18.0672 5.42739L11.5385 6.88545C11.1448 6.97317 10.9472 7.01785 10.8 7.12377C10.6699 7.21775 10.5679 7.34532 10.5047 7.49284C10.4336 7.66082 10.4336 7.86356 10.4336 8.26987V9.25873C10.4336 9.75523 10.4336 10.0035 10.5295 10.1938C10.6139 10.3593 10.7495 10.4959 10.9149 10.5803C11.1043 10.6771 11.3508 10.6771 11.8453 10.6771H24.901Z" fill="white" fill-opacity="0.22"/>
<path d="M25.4303 17.7391H11.316C10.8287 17.7391 10.4336 18.1344 10.4336 18.6221V21.2693C10.4336 21.7569 10.8287 22.1522 11.316 22.1522H25.4303C25.9176 22.1522 26.3127 21.7569 26.3127 21.2693V18.6221C26.3127 18.1344 25.9176 17.7391 25.4303 17.7391Z" fill="white" fill-opacity="0.22"/>
<path d="M35.0633 18.7595V9.13065H38.4269C39.0968 9.13065 39.6509 9.2465 40.0859 9.4782C40.5218 9.70742 40.846 10.0161 41.0585 10.405C41.2719 10.7898 41.3778 11.2176 41.3778 11.6876C41.3778 12.1014 41.3042 12.4431 41.1569 12.7137C41.023 12.9718 40.8258 13.1916 40.5838 13.3526C40.3489 13.5098 40.0934 13.6257 39.818 13.7001V13.7945C40.1124 13.8135 40.4085 13.9169 40.7062 14.1048C41.0039 14.2926 41.2521 14.5624 41.453 14.9132C41.654 15.2641 41.7541 15.6944 41.7541 16.2017C41.7541 16.6841 41.6441 17.1185 41.4249 17.5042C41.2057 17.8898 40.86 18.1951 40.387 18.421C39.9139 18.6469 39.2978 18.7595 38.5402 18.7595H35.0633ZM36.2278 17.7251H38.5402C39.3011 17.7251 39.842 17.5778 40.1612 17.2832C40.4837 16.9853 40.645 16.6245 40.645 16.2017C40.645 15.8756 40.5623 15.5744 40.3961 15.2997C40.2255 15.0156 39.98 14.7839 39.6865 14.6302C39.3796 14.4614 39.0166 14.377 38.5964 14.377H36.2278V17.7251ZM36.2278 13.3617H38.3897C38.7178 13.3667 39.0427 13.2959 39.3391 13.1548C39.6236 13.0174 39.8494 12.823 40.0156 12.5722C40.1877 12.3099 40.2759 12.0014 40.2687 11.6876C40.2724 11.4877 40.2351 11.289 40.1592 11.104C40.0832 10.919 39.9702 10.7515 39.8271 10.6119C39.5326 10.314 39.0662 10.165 38.4269 10.165H36.2278V13.3617ZM45.6428 18.9283C45.2137 18.9344 44.7886 18.8463 44.3973 18.6701C44.0367 18.5051 43.7292 18.2429 43.509 17.913C43.2899 17.5811 43.1799 17.1798 43.1799 16.7098C43.1799 16.296 43.2618 15.96 43.4247 15.7035C43.5876 15.4429 43.8051 15.2401 44.078 15.092C44.3616 14.9405 44.6651 14.8296 44.9795 14.7626C45.312 14.6882 45.6461 14.6286 45.9802 14.5839C46.4194 14.5276 46.775 14.4854 47.0471 14.4573C47.3233 14.4258 47.5235 14.3745 47.6492 14.3026C47.7774 14.2297 47.8419 14.1048 47.8419 13.926V13.8888C47.8419 13.4246 47.7145 13.0638 47.4615 12.8073C47.21 12.5507 46.8296 12.4216 46.3193 12.4216C45.79 12.4216 45.3748 12.5375 45.0738 12.7692C44.7736 13.0009 44.561 13.2491 44.4395 13.5123L43.3866 13.1358C43.5752 12.6972 43.825 12.3554 44.1392 12.1113C44.4552 11.8631 44.8 11.6909 45.173 11.5941C45.5343 11.4958 45.9069 11.4452 46.2813 11.4435C46.5128 11.4435 46.78 11.4717 47.0802 11.5279C47.3914 11.584 47.6895 11.6973 47.9593 11.8622C48.2438 12.0311 48.4804 12.2868 48.6689 12.6285C48.8567 12.9703 48.9501 13.4279 48.9501 14.0013V18.7595H47.8419V17.7814H47.7857C47.6882 17.9683 47.5611 18.1382 47.4094 18.2845C47.234 18.4632 47.0008 18.6155 46.7097 18.7405C46.4177 18.8662 46.0621 18.9283 45.6428 18.9283ZM45.8115 17.932C46.2498 17.932 46.6195 17.8459 46.9206 17.6738C47.1964 17.5244 47.4272 17.3039 47.5892 17.0351C47.7512 16.7664 47.8385 16.4592 47.8419 16.1454V15.1301C47.7948 15.1863 47.6914 15.2376 47.5318 15.2848C47.3746 15.3287 47.1927 15.3675 46.9859 15.4023C46.6333 15.4569 46.2795 15.5038 45.9248 15.543C45.6362 15.581 45.3666 15.6423 45.116 15.7267C44.8868 15.7969 44.6797 15.9252 44.5147 16.0991C44.3642 16.2613 44.2889 16.4839 44.2889 16.766C44.2889 17.1516 44.432 17.4429 44.7165 17.6407C45.0052 17.8352 45.3699 17.932 45.8115 17.932ZM52.0838 14.4151V18.7595H50.9755V11.5379H52.0466V12.6657H52.14C52.3096 12.2992 52.5659 12.0046 52.9108 11.782C53.2557 11.5569 53.7006 11.4435 54.2456 11.4435C54.7336 11.4435 55.162 11.5437 55.5276 11.7447C55.8948 11.9417 56.1801 12.2429 56.3835 12.6467C56.587 13.0489 56.6895 13.557 56.6895 14.171V18.7595H55.5797V14.2463C55.5797 13.6786 55.4325 13.2367 55.138 12.9198C54.8436 12.6004 54.4392 12.4398 53.9256 12.4398C53.5716 12.4398 53.2557 12.5168 52.977 12.6707C52.6987 12.827 52.4717 13.0607 52.3236 13.3435C52.164 13.6381 52.0838 13.9947 52.0838 14.4151ZM59.7488 16.1264L59.7306 14.7535H59.9555L63.114 11.5379H64.486L61.1216 14.9414H61.0274L59.7488 16.1264ZM58.715 18.7595V9.13065H59.824V18.7595H58.715ZM63.3017 18.7595L60.4815 15.1863L61.2713 14.4151L64.7118 18.7595H63.3017ZM72.7738 11.5379V12.4779H69.0331V11.5379H72.7738ZM70.124 9.80755H71.2322V16.6907C71.2322 17.0044 71.2777 17.2394 71.3687 17.3958C71.4629 17.5497 71.582 17.6523 71.7259 17.7061C71.8731 17.7557 72.0286 17.7814 72.1916 17.7814C72.3131 17.7814 72.414 17.7756 72.4918 17.7623L72.6803 17.7251L72.9053 18.7214C72.8309 18.7504 72.725 18.7785 72.591 18.8067C72.4562 18.8381 72.285 18.8538 72.0783 18.8538C71.7648 18.8538 71.458 18.786 71.1578 18.6511C70.8596 18.516 70.6032 18.3034 70.4151 18.0354C70.2207 17.7599 70.124 17.4115 70.124 16.9919V9.80755ZM74.4419 18.7595V11.5379H75.5138V12.6285H75.5882C75.7205 12.271 75.9587 11.9814 76.3028 11.7588C76.6502 11.5351 77.0558 11.4189 77.4689 11.4245C77.5499 11.4245 77.6508 11.4261 77.7741 11.4295C77.8956 11.4328 77.9883 11.4377 78.0511 11.4435V12.5722C77.9654 12.5548 77.8791 12.5407 77.7923 12.53C77.6542 12.5075 77.5145 12.4965 77.3746 12.4969C77.0231 12.4969 76.7105 12.5706 76.4343 12.7179C76.1639 12.8555 75.9376 13.0664 75.7814 13.3266C75.6252 13.5868 75.5454 13.8857 75.551 14.1892V18.7595H74.4419ZM81.4899 18.9283C81.0609 18.9345 80.6357 18.8463 80.2444 18.6701C79.8839 18.5051 79.5763 18.2429 79.3562 17.913C79.137 17.5811 79.027 17.1798 79.027 16.7098C79.027 16.296 79.1089 15.96 79.2718 15.7035C79.4348 15.4429 79.6523 15.2401 79.9252 15.092C80.2089 14.9408 80.5123 14.83 80.8267 14.7626C81.1591 14.6882 81.4924 14.6286 81.8274 14.5839C82.2657 14.5276 82.6213 14.4854 82.8943 14.4573C83.1705 14.4258 83.3706 14.3745 83.4963 14.3026C83.6245 14.2297 83.689 14.1048 83.689 13.926V13.8888C83.689 13.4246 83.5617 13.0638 83.3086 12.8073C83.0572 12.5507 82.6767 12.4216 82.1665 12.4216C81.6372 12.4216 81.222 12.5375 80.9209 12.7692C80.6199 13.0009 80.4082 13.2491 80.2866 13.5123L79.2338 13.1358C79.4224 12.6972 79.6721 12.3554 79.9864 12.1113C80.3023 11.8631 80.6472 11.6909 81.0202 11.5941C81.3815 11.4958 81.754 11.4452 82.1284 11.4435C82.36 11.4435 82.6271 11.4717 82.9273 11.5279C83.2309 11.5817 83.5245 11.6934 83.8065 11.8622C84.091 12.0311 84.3275 12.2868 84.5161 12.6285C84.7038 12.9703 84.7973 13.4279 84.7973 14.0013V18.7595H83.689V17.7814H83.632C83.5348 17.9683 83.408 18.1382 83.2565 18.2845C83.0812 18.4632 82.8471 18.6155 82.556 18.7405C82.2649 18.8662 81.9101 18.9283 81.4899 18.9283ZM81.6587 17.932C82.097 17.932 82.4667 17.8459 82.7669 17.6738C83.0428 17.5244 83.2738 17.3039 83.4359 17.0352C83.598 16.7665 83.6854 16.4593 83.689 16.1454V15.1301C83.6419 15.1863 83.5385 15.2376 83.3781 15.2848C83.2218 15.3287 83.0406 15.3675 82.8339 15.4023C82.4807 15.4569 82.1264 15.5038 81.7711 15.543C81.4965 15.578 81.2259 15.6395 80.9631 15.7267C80.7338 15.7965 80.5266 15.9248 80.3619 16.0991C80.2113 16.2613 80.1361 16.4839 80.1361 16.766C80.1361 17.1516 80.2783 17.4429 80.5637 17.6407C80.8523 17.8352 81.217 17.932 81.6587 17.932ZM87.9309 14.4151V18.7595H86.8219V11.5379H87.8929V12.6657H87.9872C88.1567 12.2992 88.4131 12.0046 88.758 11.782C89.102 11.5569 89.547 11.4435 90.092 11.4435C90.5807 11.4435 91.0083 11.5437 91.3755 11.7447C91.7419 11.9417 92.0264 12.2429 92.2307 12.6467C92.4341 13.0489 92.5359 13.557 92.5359 14.171V18.7595H91.4268V14.2463C91.4268 13.6786 91.2796 13.2367 90.9852 12.9198C90.6907 12.6004 90.2863 12.4398 89.7727 12.4398C89.4417 12.4343 89.1148 12.5138 88.8233 12.6707C88.5453 12.827 88.3186 13.0608 88.1708 13.3435C88.0103 13.6381 87.9309 13.9947 87.9309 14.4151ZM99.6749 13.1548L98.6791 13.437C98.6115 13.2625 98.5178 13.0993 98.4012 12.9529C98.2717 12.7846 98.1042 12.6493 97.9124 12.5582C97.7057 12.4547 97.441 12.4026 97.1185 12.4026C96.6768 12.4026 96.3088 12.5044 96.0144 12.7088C95.7233 12.909 95.5777 13.1639 95.5777 13.475C95.5777 13.7506 95.6778 13.9682 95.8779 14.1288C96.0789 14.2885 96.3915 14.4217 96.8183 14.5276L97.8893 14.7916C98.5344 14.948 99.0157 15.188 99.3316 15.5107C99.6484 15.8301 99.8064 16.2422 99.8064 16.747C99.8064 17.1608 99.6873 17.5306 99.4491 17.8567C99.2142 18.1827 98.8859 18.4401 98.4624 18.6279C98.0398 18.8158 97.5477 18.9093 96.987 18.9093C96.2509 18.9093 95.6414 18.7504 95.1592 18.4301C94.6771 18.1107 94.3711 17.644 94.2429 17.0292L95.2957 16.766C95.3958 17.155 95.5852 17.4462 95.8639 17.6407C96.1459 17.8352 96.5139 17.932 96.968 17.932C97.4849 17.932 97.8959 17.8219 98.1994 17.6026C98.5063 17.38 98.6601 17.1144 98.6601 16.8033C98.6601 16.5525 98.5724 16.3432 98.3971 16.1735C98.2218 16.0014 97.9521 15.8723 97.5883 15.7879L96.3857 15.5066C95.7249 15.3493 95.2386 15.1061 94.9285 14.7775C94.6217 14.4449 94.4687 14.0295 94.4687 13.5313C94.4687 13.1234 94.5828 12.7634 94.8111 12.4498C95.0565 12.1258 95.382 11.8714 95.7555 11.7116C96.1566 11.5329 96.6115 11.4435 97.1185 11.4435C97.833 11.4435 98.3938 11.6008 98.8007 11.9135C99.2109 12.228 99.5028 12.6418 99.6749 13.1548ZM104.69 11.5379V12.4779H100.799V11.5379H104.69ZM101.965 18.7595V10.5407C101.965 10.127 102.062 9.78272 102.256 9.50634C102.447 9.23391 102.708 9.0192 103.013 8.88571C103.323 8.74834 103.65 8.67883 103.994 8.67883C104.267 8.67883 104.49 8.70118 104.662 8.74503C104.834 8.78889 104.963 8.82944 105.047 8.86668L104.727 9.82658C104.65 9.801 104.571 9.77728 104.492 9.75542C104.366 9.72406 104.237 9.71014 104.107 9.71404C103.741 9.71404 103.476 9.80507 103.313 9.99043C103.153 10.1758 103.073 10.4464 103.073 10.8039V18.7595H101.965ZM108.973 18.9101C108.278 18.9101 107.678 18.7562 107.174 18.4492C106.67 18.1367 106.267 17.6864 106.012 17.1516C105.744 16.5939 105.609 15.9451 105.609 15.2054C105.609 14.4656 105.744 13.8135 106.012 13.2491C106.285 12.6815 106.664 12.2396 107.15 11.9235C107.638 11.6032 108.209 11.4435 108.861 11.4435C109.236 11.4435 109.608 11.5064 109.974 11.6314C110.34 11.7571 110.674 11.9607 110.975 12.2429C111.276 12.5218 111.516 12.8917 111.694 13.3517C111.873 13.8135 111.962 14.3803 111.962 15.0548V15.5248H106.398V14.5649H110.834C110.834 14.1577 110.753 13.7945 110.59 13.475C110.437 13.1631 110.199 12.9006 109.904 12.7179C109.609 12.5325 109.261 12.4407 108.861 12.4407C108.419 12.4407 108.036 12.5499 107.714 12.7692C107.398 12.9817 107.143 13.2737 106.976 13.6157C106.804 13.9633 106.718 14.3365 106.718 14.7345V15.3742C106.718 15.9203 106.811 16.3821 107 16.7611C107.191 17.1376 107.456 17.4239 107.794 17.6217C108.132 17.8161 108.525 17.913 108.973 17.913C109.264 17.913 109.527 17.8724 109.763 17.7905C110 17.7061 110.206 17.5811 110.378 17.4148C110.55 17.246 110.684 17.0358 110.778 16.7851L111.849 17.0854C111.738 17.446 111.544 17.7751 111.281 18.0454C111.014 18.3176 110.685 18.5311 110.294 18.6842C109.871 18.8401 109.424 18.9167 108.973 18.9101ZM113.648 18.7595V11.5379H114.72V12.6285H114.796C114.927 12.271 115.165 11.9814 115.509 11.7588C115.857 11.5354 116.262 11.4191 116.675 11.4245C116.757 11.4245 116.858 11.4261 116.981 11.4295C117.103 11.4328 117.195 11.4377 117.258 11.4435V12.5722C117.172 12.5548 117.086 12.5407 117 12.53C116.861 12.5075 116.721 12.4965 116.581 12.4969C116.254 12.4913 115.931 12.5672 115.641 12.7179C115.369 12.8619 115.153 13.0629 114.992 13.3195C114.834 13.5814 114.752 13.8829 114.758 14.1892V18.7595H113.648Z" fill="white"/>
</svg>
