<svg width="88" height="16" viewBox="0 0 88 16" fill="none" xmlns="http://www.w3.org/2000/svg">
<path fill-rule="evenodd" clip-rule="evenodd" d="M27.8805 7.95591C27.8805 11.9004 31.0967 14.9588 35.2357 14.9588C36.4056 14.9588 37.4079 14.7373 38.6435 14.1768V11.0957C37.5572 12.143 36.5944 12.5655 35.3622 12.5655C32.6247 12.5655 30.6816 10.6539 30.6816 7.9362C30.6816 5.35996 32.6861 3.32756 35.2357 3.32756C36.5321 3.32756 37.5136 3.77303 38.6435 4.83728V1.75775C37.4505 1.17498 36.4697 0.93335 35.2998 0.93335C31.1818 0.93335 27.8805 4.05391 27.8805 7.95591ZM20.9052 4.69676C20.9052 5.42199 21.3839 5.80511 23.0151 6.38642C26.1069 7.47571 27.0231 8.44047 27.0231 10.5729C27.0231 13.1704 25.0415 14.9793 22.2173 14.9793C20.1488 14.9793 18.6447 14.1949 17.3925 12.4244L19.1485 10.7959C19.7741 11.9613 20.8185 12.586 22.115 12.586C23.3279 12.586 24.2254 11.7804 24.2254 10.6932C24.2254 10.1296 23.9535 9.64589 23.4103 9.30428C23.1372 9.14243 22.5957 8.90193 21.5313 8.53997C18.9784 7.65548 18.1031 6.70882 18.1031 4.86006C18.1031 2.66387 19.9836 1.01508 22.4492 1.01508C23.9772 1.01508 25.3753 1.51805 26.544 2.50252L25.1217 4.29587C24.4137 3.53172 23.744 3.20916 22.9301 3.20916C21.7586 3.20916 20.9052 3.85169 20.9052 4.69676ZM13.6506 14.6566H16.3689V1.23685H13.6506V14.6566ZM8.09474 11.3178C7.24091 12.0608 6.13134 12.3848 4.3752 12.3848H3.64572V3.51024H4.3752C6.13134 3.51024 7.1973 3.81309 8.09474 4.59598C9.03473 5.40164 9.60001 6.65115 9.60001 7.93637C9.60001 9.22481 9.03473 10.5121 8.09474 11.3178ZM4.91949 1.23685H0.929688V14.6561H4.89849C7.00887 14.6561 8.53244 14.177 9.87026 13.1069C11.4601 11.8405 12.4 9.93097 12.4 7.95607C12.4 3.99561 9.3276 1.23685 4.91949 1.23685ZM56.4792 1.23685L60.1949 10.2508L63.9592 1.23685H66.9056L60.8857 15.0009H59.4229L53.5096 1.23685H56.4792ZM68.1348 14.6564H75.8431V12.3845H70.8507V8.76206H75.6594V6.48899H70.8507V3.51056H75.8431V1.23652H68.1348V14.6564ZM80.3581 7.41482H81.1521C82.8883 7.41482 83.8084 6.68846 83.8084 5.33945C83.8084 4.03356 82.8883 3.35066 81.1952 3.35066H80.3581V7.41482ZM81.6739 1.23636C84.8082 1.23636 86.6052 2.686 86.6052 5.19844C86.6052 7.25314 85.4779 8.60215 83.4306 9.00288L87.8176 14.6562H84.475L80.7128 9.26519H80.3581V14.6562H77.643V1.23636H81.6739Z" fill="white"/>
<path fill-rule="evenodd" clip-rule="evenodd" d="M51.0566 12.3928C53.2726 8.9274 52.2606 4.32371 48.7957 2.1078C45.3306 -0.108117 40.7261 0.903466 38.5099 4.36887C36.2943 7.83326 37.3069 12.4385 40.7718 14.6544C44.2366 16.8703 48.8408 15.8572 51.0566 12.3928Z" fill="url(#paint0_linear_116_26684)"/>
<defs>
<linearGradient id="paint0_linear_116_26684" x1="55.0685" y1="6.11943" x2="42.5218" y2="-1.90447" gradientUnits="userSpaceOnUse">
<stop stop-color="#F6A000"/>
<stop offset="0.623918" stop-color="#E47E02"/>
<stop offset="1" stop-color="#D36002"/>
</linearGradient>
</defs>
</svg>
