<svg width="68" height="27" viewBox="0 0 68 27" fill="none" xmlns="http://www.w3.org/2000/svg">
<path fill-rule="evenodd" clip-rule="evenodd" d="M20.3088 21.8916H15.7402L12.3129 8.39009C12.1505 7.76946 11.805 7.22 11.297 6.96182C10.0295 6.3114 8.63333 5.79338 7.10938 5.53272V5.01222H14.4694C15.4854 5.01222 16.2465 5.79255 16.3744 6.70033L18.1515 16.4384L22.7176 5.01222H27.16L20.3071 21.8908L20.3088 21.8916ZM29.7008 21.8916H25.3853L28.9396 5.01305H33.2542L29.7008 21.8916ZM38.8354 9.68927C38.9624 8.78067 39.7236 8.26017 40.6126 8.26017C42.0095 8.13025 43.531 8.39092 44.801 9.03885L45.5621 5.40528C44.3124 4.8971 42.9778 4.63174 41.6294 4.62329C37.4418 4.62329 34.3939 6.96099 34.3939 10.2065C34.3939 12.6749 36.5528 13.9716 38.0759 14.7519C39.7252 15.5298 40.3602 16.0503 40.2324 16.829C40.2324 17.9958 38.9624 18.5171 37.695 18.5171C36.1718 18.5171 34.6479 18.1273 33.2534 17.4769L32.4914 21.113C34.0153 21.7609 35.6638 22.0224 37.1878 22.0224C41.8834 22.1507 44.8018 19.8146 44.8018 16.3085C44.8018 11.8937 38.8363 11.6347 38.8363 9.68844L38.8354 9.68927ZM59.9012 21.8916L56.4748 5.01305H52.7968C52.4034 5.01972 52.0216 5.14796 51.7034 5.3803C51.3852 5.61265 51.1462 5.93778 51.0189 6.3114L44.674 21.8916H49.1156L50.0021 19.4257H55.4596L55.9676 21.8916H59.9012ZM53.4302 9.55935L54.6977 15.9204H51.1442L53.4302 9.55935Z" fill="#172B85"/>
</svg>
