<svg width="68" height="27" viewBox="0 0 68 27" fill="none" xmlns="http://www.w3.org/2000/svg">
<path fill-rule="evenodd" clip-rule="evenodd" d="M34.0222 21.8131C32.0279 23.499 29.5025 24.4209 26.8948 24.4148C20.8253 24.4148 15.9062 19.5367 15.9062 13.5199C15.9062 7.50228 20.8261 2.62332 26.8948 2.62332C29.6145 2.62332 32.1041 3.60308 34.0222 5.22582C36.0165 3.53962 38.5419 2.61749 41.1497 2.62332C47.2192 2.62332 52.1391 7.50146 52.1391 13.5191C52.1391 19.5358 47.2192 24.414 41.1505 24.414C38.5424 24.42 36.0167 23.4979 34.0222 21.8115V21.8131Z" fill="#ED0006"/>
<path fill-rule="evenodd" clip-rule="evenodd" d="M34.0234 21.8134C36.3861 19.8142 37.8845 16.8401 37.8845 13.5202C37.8845 10.1994 36.3861 7.22534 34.0234 5.22692C36.0177 3.54072 38.5431 2.61859 41.1509 2.62442C47.2204 2.62442 52.1394 7.50255 52.1394 13.5202C52.1394 19.5369 47.2204 24.4151 41.1509 24.4151C38.5431 24.4208 36.0177 23.4987 34.0234 21.8126V21.8134Z" fill="#F9A000"/>
<path fill-rule="evenodd" clip-rule="evenodd" d="M34.0212 21.8116C36.3838 19.8132 37.8822 16.84 37.8822 13.5192C37.8822 10.1985 36.3838 7.22523 34.0212 5.22681C31.6577 7.22523 30.1602 10.1985 30.1602 13.5184C30.1602 16.84 31.6577 19.8132 34.0212 21.8116Z" fill="#FF5E00"/>
</svg>
