<svg width="101" height="76" viewBox="0 0 101 76" fill="none" xmlns="http://www.w3.org/2000/svg">
  <path d="M52.8938 38.1374L54.38 36.3556C55.3152 37.2215 56.5343 37.7045 57.8034 37.7544C58.8388 37.7544 59.4567 37.3381 59.4567 36.672V36.6387C59.4567 36.0059 59.0726 35.6728 57.1521 35.1899C54.8309 34.6071 53.3447 33.9576 53.3447 31.6929V31.6595C53.3447 29.578 55.0146 28.2125 57.3692 28.2125C58.9223 28.1791 60.4252 28.6954 61.6276 29.6612L60.3083 31.5596C59.4567 30.8935 58.4046 30.4939 57.3191 30.4273C56.3506 30.4273 55.8496 30.8769 55.8496 31.4264V31.4597C55.8496 32.2091 56.3339 32.4589 58.3211 32.9585C60.6423 33.558 61.9616 34.3906 61.9616 36.3889V36.4222C61.9616 38.7036 60.2248 39.9692 57.7533 39.9692C55.9832 39.9692 54.2465 39.3198 52.8938 38.1374Z" fill="#009FE3"/>
  <path d="M63.2306 38.1374L64.7168 36.3556C65.652 37.2215 66.8711 37.7045 68.1402 37.7544C69.1756 37.7544 69.7935 37.3381 69.7935 36.672V36.6387C69.7935 36.0059 69.4094 35.6728 67.4889 35.1899C65.1677 34.6071 63.6815 33.9576 63.6815 31.6929V31.6595C63.6815 29.578 65.3514 28.2125 67.706 28.2125C69.2591 28.1791 70.762 28.6954 71.9644 29.6612L70.6451 31.5596C69.7935 30.8935 68.7414 30.4939 67.6559 30.4273C66.6874 30.4273 66.1864 30.8769 66.1864 31.4264V31.4597C66.1864 32.2091 66.6707 32.4589 68.6579 32.9585C70.9791 33.558 72.2984 34.3906 72.2984 36.3889V36.4222C72.2984 38.7036 70.5616 39.9692 68.0901 39.9692C66.3033 39.9692 64.5832 39.3198 63.2306 38.1374Z" fill="#009FE3"/>
  <path d="M74.5195 28.3457H77.0411V37.5047H82.769V39.8027H74.5195V28.3457Z" fill="#009FE3"/>
  <path d="M52.5931 45.5981L53.1609 44.9153C53.5283 45.2484 53.9959 45.4316 54.4802 45.4482C54.881 45.4482 55.1147 45.2983 55.1147 45.0319V45.0152C55.1147 44.7655 54.9645 44.6489 54.2297 44.4491C53.3446 44.2159 52.7601 43.9828 52.7601 43.1002V43.0835C52.7768 42.3175 53.4114 41.718 54.1796 41.7513C54.213 41.7513 54.2631 41.7513 54.2965 41.768C54.8977 41.7513 55.4654 41.9512 55.933 42.3342L55.432 43.0669C55.0981 42.8171 54.6973 42.6506 54.2798 42.6339C53.9124 42.6339 53.712 42.8004 53.712 43.0169V43.0336C53.712 43.3167 53.8957 43.4166 54.6639 43.6164C55.5656 43.8496 56.0666 44.166 56.0666 44.932V44.9486C56.0666 45.8312 55.3986 46.3141 54.4468 46.3141C53.7788 46.2975 53.1108 46.0477 52.5931 45.5981Z" fill="#009FE3"/>
  <path d="M56.9351 41.8345H60.2582V42.7004H57.8869V43.5997H59.9743V44.4656H57.8869V45.3981H60.2916V46.2641H56.9351V41.8345Z" fill="#009FE3"/>
  <path d="M60.9762 44.0495C60.9595 42.8006 61.9447 41.7848 63.1805 41.7515C63.2139 41.7515 63.2473 41.7515 63.2807 41.7515C63.932 41.7182 64.5665 41.968 65.0174 42.4342L64.3995 43.1503C64.099 42.8506 63.6982 42.6674 63.264 42.6507C62.5459 42.6674 61.9614 43.2669 61.9781 43.9829C61.9781 43.9996 61.9781 44.0162 61.9781 44.0162V44.0329C61.928 44.749 62.4958 45.3651 63.2139 45.4151C63.2306 45.4151 63.2473 45.4151 63.264 45.4151C63.6982 45.4151 64.1324 45.2319 64.4329 44.8988L65.0508 45.515C64.5999 46.0479 63.932 46.331 63.2473 46.2977C62.0115 46.3143 61.0096 45.3318 60.9762 44.1162C60.9762 44.0995 60.9762 44.0829 60.9762 44.0495Z" fill="#009FE3"/>
  <path d="M65.7523 44.349V41.8345H66.7209V44.3157C66.7209 45.0318 67.0883 45.3981 67.6727 45.3981C68.2572 45.3981 68.6246 45.0318 68.6246 44.349V41.8345H69.5932V44.3157C69.7101 45.2816 69.0254 46.1808 68.0568 46.2974C67.9232 46.314 67.7896 46.314 67.656 46.2974C66.6875 46.3973 65.8358 45.6979 65.7356 44.732C65.7356 44.6155 65.7356 44.4822 65.7523 44.349Z" fill="#009FE3"/>
  <path d="M70.5951 41.8343H72.6157C73.0833 41.801 73.5509 41.9675 73.9016 42.2839C74.1521 42.5503 74.3024 42.9167 74.2857 43.2831V43.2997C74.3191 43.9158 73.935 44.482 73.3338 44.6652L74.4193 46.2306H73.2837L72.3318 44.8151H71.5637V46.2306H70.5951V41.8343ZM72.5489 43.9825C73.0165 43.9825 73.3004 43.7327 73.3004 43.3663V43.3497C73.3004 42.9333 73.0165 42.7169 72.5322 42.7169H71.5637V43.9825H72.5489Z" fill="#009FE3"/>
  <path d="M75.1708 41.8345H78.494V42.7004H76.1226V43.5997H78.2101V44.4656H76.1226V45.3981H78.5274V46.2641H75.1708V41.8345Z" fill="#009FE3"/>
  <path d="M79.3958 41.8344H81.1158C82.3348 41.7511 83.3702 42.667 83.4537 43.8826C83.4537 43.9326 83.4537 43.9825 83.4537 44.0325V44.0492C83.4537 45.2648 82.4684 46.2473 81.2494 46.264C81.1993 46.264 81.1492 46.264 81.1158 46.264H79.3958V41.8344ZM81.1158 45.3647C81.8172 45.398 82.4016 44.8818 82.4517 44.1824C82.4517 44.1324 82.4517 44.0991 82.4517 44.0492V44.0325C82.4851 43.3331 81.9508 42.7336 81.2494 42.7003C81.1993 42.7003 81.1659 42.7003 81.1158 42.7003H80.3643V45.3481L81.1158 45.3647Z" fill="#009FE3"/>
  <path d="M18.3761 38.3869C18.3761 48.4617 28.2287 53.5741 32.4537 55.306L32.604 55.3726C32.9213 55.5225 33.2887 55.5225 33.5892 55.3726L33.7395 55.306C37.9812 53.5741 47.8171 48.4617 47.8171 38.3869V24.8983C47.8171 24.382 47.4665 23.9324 46.9655 23.8159L33.3554 20.452C33.1718 20.4021 32.9881 20.4021 32.8211 20.452L19.211 23.8159C18.7101 23.9324 18.3594 24.382 18.3594 24.8983M45.5961 38.3869C45.5961 46.963 37.0293 51.5258 33.1217 53.1578C29.1973 51.5258 20.6472 46.963 20.6472 38.3869V25.7642L33.1217 22.6835L45.5961 25.7642V38.3869Z" fill="#009FE3"/>
  <path d="M33.0716 27.1797C30.5667 27.1797 28.5294 29.2113 28.5294 31.7092V32.8249C27.6443 32.9748 27.0098 33.7242 27.0098 34.6068V42.5334C27.0098 43.5326 27.828 44.3486 28.83 44.3486H37.4302C38.4322 44.3486 39.2504 43.5326 39.2504 42.5334V34.6068C39.2504 33.6909 38.5491 32.9248 37.6473 32.8083V31.6926C37.5972 29.1947 35.5766 27.1797 33.0716 27.1797ZM33.0716 29.1447C34.4911 29.1447 35.6434 30.2937 35.6434 31.7092V32.7916H30.5166V31.7092C30.4999 30.2937 31.6522 29.1447 33.0716 29.1447ZM37.2465 42.3669H28.9803V34.7733H37.2465V42.3669ZM34.6748 36.1055L36.0441 37.471L33.9734 39.5359L32.6041 40.9015L31.2347 39.5359L30.1827 38.4868L31.552 37.1213L32.6041 38.1704L34.6748 36.1055Z" fill="#009FE3"/>
</svg>