<svg width="68" height="27" viewBox="0 0 68 27" fill="none" xmlns="http://www.w3.org/2000/svg">
<path d="M37.9312 13.5273C37.9312 19.3562 33.276 24.0812 27.534 24.0812C21.7919 24.0812 17.1367 19.3562 17.1367 13.5273C17.1367 7.69832 21.7927 2.97327 27.534 2.97327C33.276 2.97327 37.9312 7.69832 37.9312 13.5273Z" fill="#ED0006"/>
<path d="M51.4186 13.5275C51.4186 19.3564 46.7635 24.0815 41.0214 24.0815C35.2793 24.0815 30.625 19.3564 30.625 13.5275C30.625 7.69856 35.2793 2.97351 41.0214 2.97351C46.7635 2.97351 51.4186 7.69856 51.4186 13.5275Z" fill="#0099DF"/>
<path fill-rule="evenodd" clip-rule="evenodd" d="M34.2782 21.5599C35.4276 20.5639 36.349 19.3305 36.9795 17.9442C37.61 16.5578 37.9347 15.0512 37.9315 13.5273C37.9315 10.3108 36.5131 7.43028 34.2782 5.49475C33.1288 6.4907 32.2073 7.72404 31.5768 9.1104C30.9463 10.4968 30.6216 12.0034 30.625 13.5273C30.625 16.7438 32.0426 19.6244 34.2782 21.5599Z" fill="#6C6BBD"/>
</svg>
