<?xml version="1.0" encoding="UTF-8"?>
<svg id="Layer_2" data-name="Layer 2" xmlns="http://www.w3.org/2000/svg" viewBox="0 0 136 40">
  <defs>
    <style>
      .cls-1, .cls-2, .cls-3 {
        stroke-width: 0px;
      }

      .cls-2 {
        fill: #fff;
      }

      .cls-3 {
        fill: #969696;
      }
    </style>
  </defs>
  <g id="Layer_1-2" data-name="Layer 1">
    <g id="Layer_2-2" data-name="Layer 2">
      <g id="Layer_1-2" data-name="Layer 1-2">
        <rect class="cls-1" width="136" height="40" rx="5" ry="5"/>
        <path class="cls-3" d="m131,.8c2.31.02,4.18,1.89,4.19,4.2v30c-.02,2.31-1.88,4.18-4.19,4.2H5c-2.31-.02-4.18-1.89-4.19-4.2V5c0-2.31,1.88-4.19,4.19-4.2h126Zm0-.8H5C2.24,0,0,2.24,0,5v30c0,2.76,2.24,5,5,5h126c2.76,0,5-2.24,5-5V5c-.03-2.75-2.25-4.97-5-5Z"/>
      </g>
    </g>
    <g id="Layer_1-2-2" data-name="Layer 1-2">
      <path class="cls-2" d="m45.81,9.43h-1.8v-.7h4.5v.7h-1.9v5.4h-.8v-5.4Z"/>
      <path class="cls-2" d="m49.21,8.83c.5-.09,1-.12,1.5-.1.64-.03,1.27.15,1.8.5.32.32.5.75.5,1.2.01.69-.44,1.31-1.1,1.5h0c.5.2.7.6.9,1.2.1.59.26,1.16.5,1.7h-.8c-.1-.2-.2-.7-.4-1.4s-.5-1.2-1.2-1.2h-.7v2.6h-.8v-6h-.2Zm.7,2.7h.8c.7.07,1.32-.43,1.39-1.13,0-.02,0-.05,0-.07,0-.8-.6-1.1-1.4-1.1-.27-.03-.55,0-.8.1v2.2Z"/>
      <path class="cls-2" d="m55.01,12.93l-.6,1.9h-.8l2.1-6.1h.9l2.1,6.1h-.8l-.6-1.9h-2.3Zm2-.7l-.6-1.7c-.1-.4-.2-.8-.3-1.1h0c-.1.4-.2.7-.3,1.1l-.6,1.8h1.8v-.1Z"/>
      <path class="cls-2" d="m59.61,8.83c.56-.09,1.13-.12,1.7-.1.9-.04,1.79.24,2.5.8.59.58.92,1.37.9,2.2.04.89-.28,1.76-.9,2.4-.74.65-1.72.98-2.7.9-.47.02-.94,0-1.4-.1v-6.1h-.1Zm.7,5.3h.8c1.28.16,2.44-.75,2.6-2.02.02-.19.02-.38,0-.58,0-1.4-.8-2.3-2.5-2.3-.3-.03-.61,0-.9.1v4.8Z"/>
      <path class="cls-2" d="m68.71,11.93h-2.4v2.2h2.7v.7h-3.4v-6.1h3.3v.7h-2.5v1.9h2.4v.6h-.1Z"/>
      <path class="cls-2" d="m77.11,11.73c0,2.1-1.3,3.2-2.8,3.2s-2.7-1.2-2.7-3.1c-.16-1.6,1-3.03,2.6-3.19.07,0,.13-.01.2-.01,1.55.05,2.76,1.34,2.71,2.88,0,.07,0,.15-.01.22Zm-4.7.1c0,1.3.7,2.5,1.9,2.5s1.9-1.1,1.9-2.5c0-1.2-.6-2.5-1.9-2.5s-1.9,1.1-1.9,2.5Z"/>
      <path class="cls-2" d="m78.11,14.83v-6.1h.9l1.9,3.1c.4.7.8,1.4,1.1,2h0c-.09-.83-.12-1.67-.1-2.5v-2.6h.7v6.1h-.8l-1.9-3.1c-.4-.7-.8-1.4-1.1-2h0c0,.8.1,1.5.1,2.5v2.6h-.8Z"/>
      <path class="cls-2" d="m46.81,30.53l-2.5-10h1.4l1.2,5.1c.31,1.15.54,2.32.7,3.5h0c.2-1,.5-2.2.8-3.5l1.3-5h1.3l1.2,5.1c.3,1.2.5,2.4.7,3.4h0c.2-1.1.5-2.2.8-3.5l1.3-5h1.3l-2.8,10h-1.3l-1.2-5.3c-.3-1.2-.5-2.2-.7-3.2h0c-.21,1.11-.47,2.22-.8,3.3l-1.4,5.2h-1.3v-.1Z"/>
      <path class="cls-2" d="m57.91,27.23c-.12,1.26.82,2.38,2.08,2.5.14.01.28.01.42,0,.69,0,1.37-.13,2-.4l.2.9c-.77.29-1.58.43-2.4.4-1.84.1-3.41-1.31-3.51-3.14,0-.15,0-.3,0-.46,0-2.2,1.3-3.9,3.4-3.9,2.3,0,3,2.1,3,3.4v.6h-5.2v.1Zm3.8-.9c0-.8-.3-2.1-1.8-2.1-1.11.08-1.97.99-2,2.1h3.8Z"/>
      <path class="cls-2" d="m64.51,30.53c0-.5.1-1.2.1-1.9v-8.7h1.3v4.5h0c.5-.84,1.42-1.33,2.4-1.3,1.8,0,3,1.5,3,3.7,0,2.6-1.6,3.8-3.2,3.8-.98.05-1.91-.45-2.4-1.3h0l-.1,1.2h-1.1Zm1.4-2.8c-.02.17.02.35.1.5.23.91,1.06,1.53,2,1.5,1.4,0,2.2-1.1,2.2-2.8,0-1.4-.7-2.7-2.1-2.7-.95.02-1.77.68-2,1.6-.04.16-.08.33-.1.5v1.4h-.1Z"/>
      <path class="cls-2" d="m77.51,21.63h-3v-1.1h7.4v1.1h-3.1v8.9h-1.3v-8.9Z"/>
      <path class="cls-2" d="m82.21,25.63c.02-.73-.01-1.47-.1-2.2h1.1v1.4h.1c.23-.92,1.05-1.58,2-1.6h.4v1.2h-.4c-.94.05-1.7.77-1.8,1.7,0,.2-.1.4-.1.6v3.8h-1.3v-4.9h.1Z"/>
      <path class="cls-2" d="m91.01,30.53l-.1-.9h0c-.51.71-1.33,1.12-2.2,1.1-1.1.11-2.08-.69-2.19-1.79-.01-.1-.01-.21,0-.31,0-1.7,1.5-2.7,4.3-2.7v-.1c.11-.83-.48-1.58-1.3-1.69-.1-.01-.2-.02-.3,0-.67,0-1.32.17-1.9.5l-.3-.8c.73-.42,1.56-.63,2.4-.6,2.2,0,2.7,1.5,2.7,2.9v2.7c-.02.57.01,1.14.1,1.7h-1.2Zm-.2-3.6c-1.4,0-3,.2-3,1.6-.03.63.46,1.17,1.1,1.2.03,0,.07,0,.1,0,.77.01,1.45-.47,1.7-1.2,0-.1.1-.3.1-.4v-1.2Z"/>
      <path class="cls-2" d="m100.31,20.03v8.7c-.02.64.01,1.27.1,1.9h-1.2l-.1-1.2h0c-.47.88-1.4,1.42-2.4,1.4-1.83-.11-3.22-1.69-3.11-3.52,0-.03,0-.05,0-.08,0-2.4,1.5-3.9,3.2-3.9.88-.04,1.71.37,2.2,1.1h0v-4.3h1.3v-.1Zm-1.3,6.3c.03-.17,0-.35-.1-.5-.22-.87-1-1.48-1.9-1.5-1.3,0-2.2,1.2-2.2,2.8s.7,2.7,2.1,2.7c.94,0,1.74-.67,1.9-1.6,0-.2.1-.4.1-.6v-1.3h.1Z"/>
      <path class="cls-2" d="m103.21,27.23c-.12,1.26.82,2.38,2.08,2.5.14.01.28.01.42,0,.69,0,1.37-.13,2-.4l.2.9c-.77.29-1.58.43-2.4.4-1.84.1-3.41-1.31-3.51-3.14,0-.15,0-.3,0-.46,0-2.2,1.3-3.9,3.4-3.9,2.3,0,3,2.1,3,3.4v.6h-5.2v.1Zm3.9-.9c0-.8-.3-2.1-1.8-2.1-1.11.08-1.97.99-2,2.1h3.8Z"/>
      <path class="cls-2" d="m109.91,25.63c.02-.73-.01-1.47-.1-2.2h1.1v1.4h.1c.23-.92,1.05-1.58,2-1.6h.4v1.2h-.4c-.94.05-1.7.77-1.8,1.7,0,.2-.1.4-.1.6v3.8h-1.3v-4.9h.1Z"/>
      <path class="cls-2" d="m20.41,6.23c-1.05.14-2.09.37-3.1.7-1.15.44-2.23,1.05-3.2,1.8-.5.4-.6.6-.3.9s.4.2.9-.2c1.42-1.07,3.06-1.82,4.8-2.2.17-.02.34-.06.5-.1.1,0,0,.1-.6.7-.4.4-.9,1-1.2,1.3-1.25,1.57-2.17,3.37-2.7,5.3-.21.61-.31,1.25-.3,1.9.1.2.2.3.4.3s.4-.1.5-.8c.35-2.27,1.28-4.4,2.7-6.2.76-.94,1.63-1.78,2.6-2.5.67.45,1.28.99,1.8,1.6.26.31.56.58.9.8.2.1.4-.1.5-.3s0-.5-.9-1.4l-.7-.6h.3c.71.13,1.41.3,2.1.5,1.46.51,2.79,1.32,3.9,2.4l.5.5h-1.1q-1.1,0-1.2.2c-.17.12-.2.35-.08.52.02.03.05.06.08.08l.1.1h1.7q1.9,0,1.9-.4,0-.2-.2-.5c-.5-.5-1.6-1.5-2.3-2.1-2.37-1.79-5.34-2.61-8.3-2.3Z"/>
      <path class="cls-2" d="m12.21,10.83c-.72.78-1.26,1.7-1.6,2.7-.32.74-.55,1.51-.7,2.3-.02.25.15.47.4.5.3,0,.4-.2.6-.8.3-1.16.77-2.28,1.4-3.3l.3-.5h1.6q1.6,0,1.7-.1c.18-.15.2-.42.04-.59-.04-.05-.09-.08-.14-.11-1.19-.18-2.4-.22-3.6-.1Z"/>
      <path class="cls-2" d="m19.41,10.83c-.21.1-.3.35-.21.56.03.06.06.1.11.14.1.1.2.1,3.2.1h3l.3.7c.7,1.51,1.11,3.14,1.2,4.8v.5h-4.9c-5.2,0-5.1,0-5.2.2-.08.17-.04.37.1.5l.1.1h10.6l.1-.2c.1-.1.1-.2.1-1.1-.06-1.95-.54-3.85-1.4-5.6-.17-.35-.37-.68-.6-1-.1-.1-.6-.1-3.3-.1-2.3.3-3.1.3-3.2.4Z"/>
      <path class="cls-2" d="m31.31,12.33c-.2.2-.2.4.2,1.1.55,1.2.89,2.48,1,3.8v.5h-1.6c-1.8,0-1.9,0-2,.3s0,.3.1.5l.1.1h4.1l.2-.2c.12-1.08.02-2.16-.3-3.2-.26-1.02-.66-2-1.2-2.9-.12-.17-.35-.2-.52-.08-.03.02-.06.05-.08.08Z"/>
      <path class="cls-2" d="m9.91,17.73c-.3.1-.4.4-.2,1.6.12,1.39.49,2.75,1.1,4,.4.9.6,1,1,.7.2-.2.2-.3-.1-1.1-.39-.8-.69-1.64-.9-2.5-.19-.58-.26-1.19-.2-1.8h4.6v.6c.09,1.22.32,2.43.7,3.6.2.7.3.8.6.8.21-.01.39-.19.4-.4-.05-.24-.11-.47-.2-.7-.4-1.16-.63-2.37-.7-3.6-.01-.37-.05-.74-.1-1.1,0-.1-.1-.1-.2-.2s-5.6,0-5.8.1Z"/>
      <path class="cls-2" d="m23.11,19.53c-.25.05-.45.25-.5.5-.1.2-.1.8-.1,5.2-.07,1.73-.04,3.47.1,5.2.11.21.29.39.5.5.2.1.4.1,2.8.1h2.6v1.8h-2l-.2.2c-.1.1-.2.2-.2.3s.1.2.2.3l.2.2h6.8l.1-.1c.19-.18.2-.49.02-.68,0,0-.01-.01-.02-.02-.1-.1-.2-.1-1.1-.1h-1v-1.8h2.6c2.4,0,2.6,0,2.8-.1.21-.11.39-.29.5-.5,0-.1.1-1.7.1-5.2v-5l-.1-.2c-.1-.3-.3-.4-.6-.5h-6.7c-5.5-.1-6.6-.1-6.8-.1Zm13.2,4.4v3.4h-12.8v-6.8h12.8v3.4Zm0,5.3v.9h-12.8v-1.8h12.8v.9Zm-6,2.7v.9h-1v-1.8h1v.9Z"/>
      <path class="cls-2" d="m29.61,28.83c-.21.12-.29.39-.16.6s.39.29.6.16c.07-.04.13-.1.16-.16.1-.2.1-.4-.1-.5s-.3-.2-.5-.1Z"/>
      <path class="cls-2" d="m12.11,24.63c-.2.1-.2.2-.2.4s.1.3.4.7c1.09,1.34,2.46,2.43,4,3.2,1.38.66,2.87,1.07,4.4,1.2.6,0,.7-.1.7-.7v-.3l-.4-.4c-1.2-1.07-2.28-2.28-3.2-3.6-.15-.16-.28-.32-.4-.5-1.77-.1-3.53-.1-5.3,0Zm5.2,1.2c.63.92,1.33,1.79,2.1,2.6l.7.7h-.2c-.68-.11-1.35-.27-2-.5-1.14-.43-2.21-1-3.2-1.7-.4-.3-1.4-1.3-1.4-1.3h3.7l.3.2Z"/>
      <path class="cls-2" d="m19.01,24.63c-.2.1-.3.4-.2.5,0,.11.09.19.2.2.1.1.2.1,1.3.1s1.2,0,1.3-.1c.18-.15.2-.42.04-.59-.04-.05-.09-.08-.14-.11-.83-.1-1.67-.1-2.5,0Z"/>
    </g>
  </g>
</svg>