<svg width="256" height="46" viewBox="0 0 256 46" fill="none" xmlns="http://www.w3.org/2000/svg">
<g clip-path="url(#clip0_1_439)">
<path d="M40.1114 0.857147H5.56439C2.88575 0.857147 0.714279 3.04034 0.714279 5.73345V40.467C0.714279 43.1601 2.88575 45.3433 5.56439 45.3433H40.1114C42.7901 45.3433 44.9615 43.1601 44.9615 40.467V5.73345C44.9615 3.04034 42.7901 0.857147 40.1114 0.857147Z" fill="url(#paint0_linear_1_439)"/>
<path d="M7.71305 12.5852C6.26115 13.487 5.13483 14.8321 4.49864 16.4236L9.00537 19.0824C9.75055 17.3748 10.899 16.5225 12.4506 16.5246C13.7315 16.4186 14.8564 17.3763 14.9619 18.6648C14.9711 18.7816 14.9725 18.8983 14.9647 19.0151C14.9647 20.1561 14.1725 21.5463 12.5881 23.1866L4.73303 31.3985V35.3078H20.6669V30.1214H12.7897L16.6859 26.1784C19.1117 23.7295 20.327 21.2627 20.332 18.7787C20.332 16.4917 19.5576 14.6681 18.0081 13.3079C16.4551 11.952 14.4553 11.2272 12.3993 11.2744C10.7465 11.2608 9.12291 11.7157 7.71376 12.5852" fill="white"/>
<path d="M29.639 11.7429L22.175 26.553V31.5331H31.9707V26.553H27.9292L35.3974 11.7429H29.639Z" fill="white"/>
<path d="M40.5852 26.553H39.062V31.5331H40.5852V26.553Z" fill="white"/>
<path d="M36.0749 19.4642H35.0284V21.5055H32.8534V26.553V31.5331V35.3042H35.0284V37.3449H36.0749V35.3042H38.2499V21.5055H36.0749V19.4642Z" fill="white"/>
<path d="M60.5733 14.479C57.5798 14.1989 56.0837 15.461 56.0837 18.2658V18.6483H60.5733V22.6264H56.0837V37.7746H51.9745V22.6264H49.0828V18.6483H51.9745V18.2658C51.9745 15.6393 52.7033 13.6438 54.1623 12.2793C55.6206 10.9156 57.7579 10.3225 60.5733 10.5009V14.479Z" fill="white"/>
<path d="M75.7926 18.6483H79.9018V37.7746H75.7926V35.3264C74.5495 37.2904 72.5839 38.2717 69.8953 38.2717C67.7139 38.2717 65.9506 37.5705 64.607 36.168C63.262 34.7656 62.5902 32.8403 62.5902 30.3921V18.6483H66.6994V29.971C66.6994 31.3992 67.0798 32.4958 67.8407 33.2607C68.6015 34.0257 69.6417 34.4082 70.9603 34.4082C72.4058 34.4082 73.5728 33.9555 74.4604 33.0502C75.3481 32.1455 75.7919 30.7617 75.7919 28.8994V18.6476L75.7926 18.6483Z" fill="white"/>
<path d="M94.7015 18.1512C96.8829 18.1512 98.6454 18.8532 99.9897 20.2549C101.334 21.6581 102.007 23.5826 102.007 26.0308V37.7746H97.8973V26.452C97.8973 25.0238 97.5169 23.9272 96.7561 23.1622C95.9952 22.3972 94.9551 22.0148 93.6364 22.0148C92.1909 22.0148 91.024 22.4681 90.1363 23.3728C89.2479 24.2781 88.8048 25.6619 88.8048 27.5228V37.7746H84.6956V18.6483H88.8048V21.0965C90.0473 19.1332 92.0135 18.1512 94.7022 18.1512H94.7015Z" fill="white"/>
<path d="M121.487 10.998H125.596V37.7746H121.487V35.0206C119.939 37.1887 117.72 38.2724 114.829 38.2724C112.216 38.2724 109.983 37.2969 108.133 35.3458C106.281 33.3947 105.355 31.0174 105.355 28.2118C105.355 25.4062 106.28 22.9967 108.133 21.0585C109.984 19.1211 112.216 18.1512 114.829 18.1512C117.72 18.1512 119.939 19.2221 121.487 21.3644V10.998ZM111.176 32.5918C112.317 33.7528 113.75 34.3323 115.475 34.3323C117.201 34.3323 118.634 33.7528 119.775 32.5918C120.916 31.4314 121.487 29.9717 121.487 28.2118C121.487 26.452 120.916 24.993 119.775 23.8319C118.634 22.6716 117.2 22.0914 115.475 22.0914C113.751 22.0914 112.317 22.6716 111.176 23.8319C110.035 24.993 109.464 26.452 109.464 28.2118C109.464 29.9717 110.035 31.4314 111.176 32.5918Z" fill="white"/>
<path d="M133.623 29.9717C133.928 31.425 134.625 32.5409 135.716 33.3188C136.806 34.0973 138.138 34.4856 139.711 34.4856C141.892 34.4856 143.528 33.6955 144.619 32.114L148.005 34.1031C146.128 36.8829 143.35 38.2724 139.673 38.2724C136.578 38.2724 134.079 37.3227 132.177 35.4224C130.275 33.5229 129.324 31.1191 129.324 28.2118C129.324 25.3045 130.262 22.9652 132.139 21.0392C134.016 19.1139 136.426 18.1512 139.368 18.1512C142.158 18.1512 144.448 19.1332 146.236 21.0965C148.024 23.0605 148.918 25.4449 148.918 28.2498C148.918 28.6838 148.867 29.2576 148.766 29.971H133.623L133.623 29.9717ZM133.586 26.6053H144.771C144.492 25.0503 143.852 23.877 142.85 23.0863C141.848 22.2962 140.675 21.9002 139.331 21.9002C137.809 21.9002 136.54 22.3206 135.526 23.1622C134.511 24.0038 133.864 25.1513 133.585 26.6053H133.586Z" fill="white"/>
<path d="M167.485 10.998H171.594V37.7746H167.485V35.0206C165.938 37.1887 163.719 38.2724 160.827 38.2724C158.215 38.2724 155.982 37.2969 154.131 35.3458C152.279 33.3947 151.353 31.0174 151.353 28.2118C151.353 25.4062 152.279 22.9967 154.131 21.0585C155.983 19.1211 158.215 18.1512 160.827 18.1512C163.719 18.1512 165.938 19.2221 167.485 21.3644V10.998ZM157.174 32.5918C158.316 33.7528 159.748 34.3323 161.474 34.3323C163.199 34.3323 164.632 33.7528 165.773 32.5918C166.915 31.4314 167.485 29.9717 167.485 28.2118C167.485 26.452 166.915 24.993 165.773 23.8319C164.632 22.6716 163.199 22.0914 161.474 22.0914C159.749 22.0914 158.316 22.6716 157.174 23.8319C156.033 24.993 155.462 26.452 155.462 28.2118C155.462 29.9717 156.033 31.4314 157.174 32.5918Z" fill="white"/>
<path d="M178.989 37.7574C178.272 38.4823 177.106 38.4859 176.385 37.7653C176.036 37.4158 175.84 36.9402 175.842 36.4452C175.828 35.4403 176.625 34.613 177.625 34.598C177.645 34.598 177.664 34.598 177.684 34.598C178.704 34.6095 179.52 35.4496 179.509 36.4746C179.503 36.9481 179.318 37.4022 178.99 37.7431" fill="white"/>
<path d="M191.25 38.3347C188.169 38.3347 185.608 37.3076 183.567 35.2527C181.54 33.24 180.431 30.4745 180.502 27.6109C180.429 24.7473 181.538 21.9811 183.567 19.9691C185.608 17.912 188.169 16.8849 191.25 16.8871C193.142 16.862 195.006 17.3512 196.645 18.3024C198.192 19.1784 199.424 20.5242 200.164 22.1466L198.49 23.1293C197.89 21.8156 196.896 20.7241 195.648 20.0085C194.315 19.2307 192.797 18.8331 191.257 18.8568C188.942 18.8038 186.709 19.7191 185.091 21.3845C183.444 23.0276 182.542 25.2788 182.597 27.6109C182.541 29.9416 183.444 32.1928 185.091 33.833C186.709 35.5005 188.944 36.4166 191.26 36.3607C192.8 36.3858 194.317 35.9876 195.647 35.209C196.911 34.4741 197.939 33.3911 198.61 32.0882L200.339 33.1139C199.515 34.7119 198.244 36.0334 196.683 36.9151C195.038 37.8677 193.168 38.3577 191.268 38.334" fill="white"/>
<path d="M212.334 38.3347C209.48 38.392 206.726 37.2711 204.714 35.2333C202.662 33.2414 201.528 30.4795 201.587 27.6116C201.527 24.7437 202.661 21.9811 204.714 19.9899C208.946 15.8542 215.683 15.8542 219.915 19.9899C221.969 21.9811 223.103 24.7437 223.043 27.6116C223.101 30.4795 221.968 33.2414 219.915 35.2333C217.917 37.2661 215.177 38.387 212.334 38.3347ZM206.204 33.8144C209.6 37.2109 215.088 37.2109 218.485 33.8144C220.123 32.1756 221.024 29.9352 220.979 27.6116C221.024 25.2873 220.123 23.0455 218.485 21.4052C215.089 18.0087 209.601 18.0087 206.204 21.4052C204.556 23.0404 203.647 25.2838 203.69 27.6116C203.647 29.938 204.556 32.1806 206.204 33.8144Z" fill="white"/>
<path d="M248.132 16.8885C250.368 16.8885 252.167 17.5868 253.527 18.9835C254.888 20.3802 255.569 22.3378 255.571 24.8561V37.8828H253.511V24.8561C253.511 22.9416 253.015 21.4596 252.021 20.4225C250.987 19.361 249.554 18.7894 248.077 18.8503C246.393 18.7909 244.771 19.4828 243.643 20.7412C242.512 22.004 241.947 23.8949 241.947 26.4133V37.8835H239.905V24.8569C239.905 22.9423 239.432 21.4604 238.494 20.4232C237.513 19.3589 236.116 18.7837 234.674 18.851C232.967 18.8123 231.324 19.5071 230.158 20.7613C228.946 22.0348 228.34 23.9193 228.34 26.414V37.8842H226.296V17.3605H228.34V20.8981C229.756 18.2408 231.948 16.9121 234.916 16.9121C236.298 16.8835 237.656 17.2616 238.826 18.0008C239.954 18.7422 240.814 19.8302 241.278 21.1022C241.907 19.79 242.91 18.6956 244.159 17.9578C245.358 17.2652 246.718 16.9042 248.1 16.9121" fill="white"/>
</g>
<defs>
<linearGradient id="paint0_linear_1_439" x1="42.0079" y1="45.2717" x2="3.43326" y2="1.13522" gradientUnits="userSpaceOnUse">
<stop offset="0.469037" stop-color="#6700E4"/>
<stop offset="0.79" stop-color="#35056F"/>
<stop offset="1" stop-color="#170231"/>
</linearGradient>
<clipPath id="clip0_1_439">
<rect width="254.857" height="44.5714" fill="white" transform="translate(0.714279 0.857147)"/>
</clipPath>
</defs>
</svg>
