<?xml version="1.0" encoding="UTF-8"?>
<svg id="Layer_2" data-name="Layer 2" xmlns="http://www.w3.org/2000/svg" xmlns:xlink="http://www.w3.org/1999/xlink" viewBox="0 0 1257.52 218.95">
  <defs>
    <style>
      .cls-1 {
        fill: #fff;
      }

      .cls-2 {
        fill: url(#linear-gradient);
      }
    </style>
    <linearGradient id="linear-gradient" x1="204.09" y1="47.5" x2="14.31" y2="265.27" gradientTransform="translate(0 265.86) scale(1 -1)" gradientUnits="userSpaceOnUse">
      <stop offset=".47" stop-color="#6700e4"/>
      <stop offset=".79" stop-color="#35056f"/>
      <stop offset="1" stop-color="#170231"/>
    </linearGradient>
  </defs>
  <g id="Layer_1-2" data-name="Layer 1">
    <path class="cls-2" d="M194.46,0H23.94C10.72,0,0,10.75,0,24v170.95c0,13.25,10.72,24,23.94,24h170.52c13.22,0,23.94-10.75,23.94-24V24c0-13.25-10.72-24-23.94-24Z"/>
    <g>
      <path class="cls-1" d="M78.83,128.03c11.97-12.05,17.97-24.19,18-36.42,0-11.26-3.82-20.23-11.47-26.93-7.67-6.67-17.54-10.24-27.68-10.01-8.16-.07-16.17,2.17-23.13,6.45h0c-7.17,4.44-12.73,11.06-15.87,18.89l22.24,13.09c3.68-8.4,9.35-12.6,17.01-12.59,6.32-.52,11.87,4.19,12.39,10.53.05.57.05,1.15.01,1.72,0,5.62-3.91,12.46-11.73,20.53l-38.77,40.42v19.24h78.65v-25.53h-38.88l19.23-19.41Z"/>
      <polygon class="cls-1" points="171.19 56.99 142.77 56.99 105.93 129.88 105.93 154.39 154.28 154.39 154.28 129.88 134.33 129.88 171.19 56.99"/>
      <rect class="cls-1" x="189.28" y="129.88" width="7.52" height="24.51"/>
      <polygon class="cls-1" points="174.53 94.99 169.37 94.99 169.37 105.04 158.63 105.04 158.63 129.88 158.63 154.39 158.63 172.95 169.37 172.95 169.37 182.99 174.53 182.99 174.53 172.95 185.27 172.95 185.27 105.04 174.53 105.04 174.53 94.99"/>
    </g>
    <path d="M295.04,64.24c-14.77-1.38-22.16,4.83-22.16,18.64v1.88h22.16v19.58h-22.16v74.55h-20.28v-74.55h-14.28v-19.58h14.28v-1.88c0-12.93,3.6-22.75,10.8-29.46,7.2-6.71,17.74-9.63,31.64-8.75v19.58Z"/>
    <path d="M370.16,84.76h20.28v94.13h-20.28v-12.05c-6.14,9.67-15.84,14.5-29.11,14.5-10.77,0-19.47-3.45-26.1-10.35-6.64-6.9-9.95-16.38-9.95-28.43v-57.8h20.28v55.73c0,7.03,1.88,12.43,5.63,16.19,3.75,3.76,8.89,5.65,15.4,5.65,7.13,0,12.89-2.23,17.27-6.68,4.38-4.45,6.57-11.26,6.57-20.43v-50.46h0Z"/>
    <path d="M463.49,82.32c10.77,0,19.47,3.45,26.1,10.35,6.64,6.91,9.95,16.38,9.95,28.43v57.8h-20.28v-55.73c0-7.03-1.88-12.43-5.63-16.19-3.76-3.76-8.89-5.65-15.4-5.65-7.13,0-12.89,2.23-17.27,6.68-4.38,4.46-6.58,11.27-6.58,20.43v50.46h-20.28v-94.13h20.28v12.05c6.13-9.66,15.84-14.5,29.11-14.5h0Z"/>
    <path d="M595.7,47.11h20.28v131.79h-20.28v-13.55c-7.64,10.67-18.59,16-32.86,16-12.89,0-23.91-4.8-33.05-14.4-9.14-9.6-13.71-21.3-13.71-35.11s4.57-25.67,13.71-35.21c9.14-9.54,20.16-14.31,33.05-14.31,14.28,0,25.23,5.27,32.86,15.81v-51.02ZM544.81,153.39c5.63,5.71,12.71,8.57,21.22,8.57s15.59-2.85,21.22-8.57c5.63-5.71,8.45-12.9,8.45-21.56s-2.81-15.84-8.45-21.56c-5.63-5.71-12.71-8.57-21.22-8.57s-15.59,2.86-21.22,8.57c-5.63,5.71-8.45,12.9-8.45,21.56s2.82,15.85,8.45,21.56Z"/>
    <path d="M655.6,140.49c1.5,7.15,4.94,12.64,10.33,16.47,5.38,3.83,11.95,5.74,19.72,5.74,10.77,0,18.84-3.89,24.23-11.67l16.71,9.79c-9.26,13.68-22.97,20.52-41.13,20.52-15.28,0-27.61-4.67-36.99-14.03-9.39-9.35-14.08-21.18-14.08-35.49s4.63-25.82,13.89-35.3c9.26-9.48,21.16-14.21,35.68-14.21,13.77,0,25.07,4.83,33.9,14.5,8.83,9.67,13.24,21.4,13.24,35.21,0,2.14-.25,4.96-.75,8.47h-74.74,0ZM655.42,123.93h55.21c-1.38-7.65-4.54-13.43-9.48-17.32-4.95-3.89-10.73-5.84-17.37-5.84-7.51,0-13.77,2.07-18.78,6.21-5.01,4.14-8.2,9.79-9.58,16.95h0Z"/>
    <path d="M822.74,47.11h20.28v131.79h-20.28v-13.55c-7.64,10.67-18.59,16-32.86,16-12.9,0-23.92-4.8-33.05-14.4-9.14-9.6-13.71-21.3-13.71-35.11s4.57-25.67,13.71-35.21c9.14-9.54,20.16-14.31,33.05-14.31,14.27,0,25.23,5.27,32.86,15.81v-51.02ZM771.85,153.39c5.63,5.71,12.7,8.57,21.22,8.57s15.59-2.85,21.22-8.57c5.63-5.71,8.45-12.9,8.45-21.56s-2.82-15.84-8.45-21.56c-5.63-5.71-12.71-8.57-21.22-8.57s-15.59,2.86-21.22,8.57c-5.63,5.71-8.45,12.9-8.45,21.56s2.81,15.85,8.45,21.56Z"/>
    <path d="M879.52,178.81c-3.54,3.57-9.29,3.59-12.85.04-1.73-1.72-2.69-4.06-2.68-6.5-.08-4.95,3.86-9.02,8.8-9.09h.29c5.03.06,9.06,4.19,9,9.24-.03,2.33-.94,4.57-2.56,6.24"/>
    <path d="M940.04,181.65c-15.21,0-27.84-5.06-37.92-15.17-10-9.91-15.48-23.52-15.13-37.61-.36-14.09,5.12-27.71,15.13-37.61,10.08-10.12,22.71-15.18,37.92-15.17,9.34-.12,18.54,2.28,26.63,6.97,7.64,4.31,13.72,10.94,17.37,18.92l-8.26,4.84c-2.96-6.47-7.87-11.84-14.03-15.36-6.57-3.83-14.07-5.78-21.67-5.67-11.43-.26-22.45,4.24-30.44,12.44-8.13,8.09-12.58,19.17-12.31,30.64-.27,11.47,4.18,22.55,12.31,30.62,7.99,8.21,19.02,12.72,30.45,12.44,7.6.12,15.09-1.84,21.65-5.67,6.24-3.62,11.32-8.95,14.63-15.36l8.53,5.05c-4.07,7.86-10.34,14.37-18.05,18.71-8.12,4.69-17.35,7.1-26.73,6.98"/>
    <path d="M1044.1,181.65c-14.09.28-27.68-5.24-37.61-15.26-10.13-9.8-15.73-23.4-15.44-37.51-.29-14.11,5.3-27.71,15.44-37.51,20.89-20.35,54.14-20.35,75.03,0,10.14,9.8,15.73,23.4,15.44,37.51.29,14.11-5.31,27.71-15.44,37.51-9.87,10-23.39,15.52-37.42,15.26ZM1013.85,159.41c16.76,16.72,43.85,16.72,60.61,0,8.09-8.07,12.54-19.09,12.31-30.53.23-11.44-4.22-22.47-12.31-30.55-16.76-16.72-43.85-16.72-60.61,0-8.14,8.05-12.63,19.09-12.41,30.55-.22,11.45,4.27,22.49,12.41,30.53Z"/>
    <path d="M1220.8,76.1c11.04,0,19.91,3.44,26.63,10.31,6.72,6.87,10.08,16.51,10.09,28.9v64.11h-10.17v-64.11c0-9.42-2.45-16.72-7.35-21.82-5.1-5.22-12.18-8.04-19.47-7.74-8.31-.29-16.32,3.11-21.88,9.31-5.59,6.21-8.38,15.52-8.38,27.92v56.45h-10.08v-64.11c0-9.42-2.34-16.72-6.96-21.82-4.84-5.24-11.74-8.07-18.86-7.74-8.42-.19-16.53,3.23-22.29,9.4-5.98,6.27-8.97,15.54-8.97,27.82v56.45h-10.09v-101.01h10.09v17.41c6.99-13.08,17.81-19.62,32.46-19.62,6.82-.14,13.52,1.72,19.29,5.36,5.57,3.65,9.81,9,12.1,15.26,3.11-6.46,8.05-11.84,14.22-15.48,5.92-3.41,12.63-5.19,19.45-5.15"/>
  </g>
</svg>